<svg xmlns="http://www.w3.org/2000/svg" width="80.932" height="80.932" viewBox="0 0 80.932 80.932">
  <g id="Group_54" data-name="Group 54" transform="translate(2 2)">
    <path id="Path_169" data-name="Path 169" d="M49.966,108.432A38.51,38.51,0,0,0,88.432,69.966,38.063,38.063,0,0,0,85.8,55.975a1.35,1.35,0,0,0-1.256-.855H64.813V35.387a1.349,1.349,0,0,0-.855-1.256A38.042,38.042,0,0,0,49.966,31.5a38.466,38.466,0,1,0,0,76.932Zm0-74.233a35.4,35.4,0,0,1,12.147,2.119v20.15a1.349,1.349,0,0,0,1.35,1.35h20.15a35.425,35.425,0,0,1,2.119,12.147A35.767,35.767,0,1,1,49.966,34.2Z" transform="translate(-11.5 -31.5)" fill="#2ac4ff" stroke="#292929" stroke-width="4"/>
    <path id="Path_170" data-name="Path 170" d="M35.82,0A35.82,35.82,0,1,1,0,35.82,35.82,35.82,0,0,1,35.82,0Z" transform="translate(2.849 3.128)" fill="#ffc929"/>
  </g>
</svg>
